<svg xmlns="http://www.w3.org/2000/svg" width="750" height="1250" viewBox="0 0 750 1250">
  <defs>
    <!-- Colors -->
    <linearGradient id="bg" x1="0" y1="0" x2="1" y2="1">
      <stop offset="0" stop-color="#16324A"></stop>
      <stop offset="0.55" stop-color="#0F3B5F"></stop>
      <stop offset="1" stop-color="#1B2E4F"></stop>
    </linearGradient>

    <linearGradient id="gold" x1="0" y1="0" x2="1" y2="1">
      <stop offset="0" stop-color="#F6D36B"></stop>
      <stop offset="0.5" stop-color="#CFA64A"></stop>
      <stop offset="1" stop-color="#F6D36B"></stop>
    </linearGradient>

    <!-- Subtle speckle -->
    <filter id="speckle" x="-20%" y="-20%" width="140%" height="140%">
      <feTurbulence type="fractalNoise" baseFrequency="0.9" numOctaves="2" stitchTiles="stitch" result="n"></feTurbulence>
      <feColorMatrix in="n" type="matrix" values="
        1 0 0 0 0
        0 1 0 0 0
        0 0 1 0 0
        0 0 0 0.22 0" result="a"></feColorMatrix>
      <feBlend in="SourceGraphic" in2="a" mode="overlay"></feBlend>
    </filter>

    <!-- Soft glow for gold lines -->
    <filter id="glow" x="-40%" y="-40%" width="180%" height="180%">
      <feGaussianBlur stdDeviation="2.6" result="b"></feGaussianBlur>
      <feMerge>
        <feMergeNode in="b"></feMergeNode>
        <feMergeNode in="SourceGraphic"></feMergeNode>
      </feMerge>
    </filter>

    <!-- Card clip (transparent outside) -->
    <clipPath id="cardClip">
      <rect x="40" y="40" width="670" height="1170" rx="54" ry="54"></rect>
    </clipPath>

    <!-- 8-point star -->
    <g id="star8">
      <path d="M0,-11 L3,-3 L11,0 L3,3 L0,11 L-3,3 L-11,0 L-3,-3 Z"></path>
    </g>

    <!-- Corner flourish -->
    <path id="flour" d="M0,70
      C28,70 44,58 52,44
      C60,30 76,18 100,18
      C118,18 134,26 146,40
      C124,34 104,38 90,50
      C78,62 72,78 72,96
      C72,122 90,142 118,150
      C86,150 58,136 38,114
      C20,94 10,78 0,70Z"></path>
  </defs>

  <!-- TRANSPARENT BACKGROUND: we draw ONLY the card. -->
  <g clip-path="url(#cardClip)">
    <!-- Card base -->
    <rect x="40" y="40" width="670" height="1170" rx="54" ry="54" fill="url(#bg)" filter="url(#speckle)"></rect>

    <!-- Outer border -->
    <rect x="58" y="58" width="634" height="1134" rx="44" ry="44" fill="none" stroke="url(#gold)" stroke-width="7" opacity="0.92" filter="url(#glow)"></rect>
    <rect x="78" y="78" width="594" height="1094" rx="36" ry="36" fill="none" stroke="url(#gold)" stroke-width="3.5" opacity="0.65"></rect>

    <!-- Tiny stars along the sides -->
    <g fill="url(#gold)" opacity="0.65">
      <!-- left -->
      <circle cx="86" cy="160" r="2"></circle><circle cx="86" cy="260" r="2"></circle><circle cx="86" cy="360" r="2"></circle>
      <circle cx="86" cy="460" r="2"></circle><circle cx="86" cy="560" r="2"></circle><circle cx="86" cy="660" r="2"></circle>
      <circle cx="86" cy="760" r="2"></circle><circle cx="86" cy="860" r="2"></circle><circle cx="86" cy="960" r="2"></circle>
      <circle cx="86" cy="1060" r="2"></circle>
      <!-- right -->
      <circle cx="664" cy="160" r="2"></circle><circle cx="664" cy="260" r="2"></circle><circle cx="664" cy="360" r="2"></circle>
      <circle cx="664" cy="460" r="2"></circle><circle cx="664" cy="560" r="2"></circle><circle cx="664" cy="660" r="2"></circle>
      <circle cx="664" cy="760" r="2"></circle><circle cx="664" cy="860" r="2"></circle><circle cx="664" cy="960" r="2"></circle>
      <circle cx="664" cy="1060" r="2"></circle>
    </g>

    <!-- Corner flourishes -->
    <g fill="url(#gold)" opacity="0.55" filter="url(#glow)">
      <g transform="translate(94 94)"><use href="#flour"></use></g>
      <g transform="translate(656 94) scale(-1,1)"><use href="#flour"></use></g>
      <g transform="translate(94 1156) scale(1,-1)"><use href="#flour"></use></g>
      <g transform="translate(656 1156) scale(-1,-1)"><use href="#flour"></use></g>
    </g>

    <!-- Central emblem -->
    <g transform="translate(375 625)">
      <!-- Rings -->
      <circle r="232" fill="none" stroke="url(#gold)" stroke-width="5.5" opacity="0.88" filter="url(#glow)"></circle>
      <circle r="206" fill="none" stroke="url(#gold)" stroke-width="3" opacity="0.55"></circle>
      <circle r="180" fill="none" stroke="url(#gold)" stroke-width="2.5" opacity="0.40"></circle>

      <!-- 12 segments -->
      <g stroke="url(#gold)" opacity="0.55" stroke-width="2">
        <line x1="0" y1="-232" x2="0" y2="-180"></line>
        <line x1="0" y1="-232" x2="0" y2="-180" transform="rotate(30)"></line>
        <line x1="0" y1="-232" x2="0" y2="-180" transform="rotate(60)"></line>
        <line x1="0" y1="-232" x2="0" y2="-180" transform="rotate(90)"></line>
        <line x1="0" y1="-232" x2="0" y2="-180" transform="rotate(120)"></line>
        <line x1="0" y1="-232" x2="0" y2="-180" transform="rotate(150)"></line>
        <line x1="0" y1="-232" x2="0" y2="-180" transform="rotate(180)"></line>
        <line x1="0" y1="-232" x2="0" y2="-180" transform="rotate(210)"></line>
        <line x1="0" y1="-232" x2="0" y2="-180" transform="rotate(240)"></line>
        <line x1="0" y1="-232" x2="0" y2="-180" transform="rotate(270)"></line>
        <line x1="0" y1="-232" x2="0" y2="-180" transform="rotate(300)"></line>
        <line x1="0" y1="-232" x2="0" y2="-180" transform="rotate(330)"></line>
      </g>

      <!-- Simple zodiac-like glyph marks (no fonts): little dots/triangles) -->
      <g fill="url(#gold)" opacity="0.62">
        <circle cx="0" cy="-196" r="4"></circle>
        <path d="M98 -170 l6 12 h-12z"></path>
        <circle cx="170" cy="-98" r="4"></circle>
        <path d="M196 0 l-12 6 v-12z"></path>
        <circle cx="170" cy="98" r="4"></circle>
        <path d="M98 170 l-6 -12 h12z"></path>
        <circle cx="0" cy="196" r="4"></circle>
        <path d="M-98 170 l6 -12 h-12z"></path>
        <circle cx="-170" cy="98" r="4"></circle>
        <path d="M-196 0 l12 6 v-12z"></path>
        <circle cx="-170" cy="-98" r="4"></circle>
        <path d="M-98 -170 l-6 12 h12z"></path>
      </g>

      <!-- Compass rose -->
      <g filter="url(#glow)">
        <circle r="140" fill="none" stroke="url(#gold)" stroke-width="4.5" opacity="0.9"></circle>
        <circle r="116" fill="none" stroke="url(#gold)" stroke-width="2.5" opacity="0.55"></circle>

        <!-- Major points -->
        <g fill="url(#gold)" opacity="0.92">
          <path d="M0,-118 L14,-18 L0,-32 L-14,-18 Z"></path>
          <path d="M118,0 L18,14 L32,0 L18,-14 Z"></path>
          <path d="M0,118 L-14,18 L0,32 L14,18 Z"></path>
          <path d="M-118,0 L-18,-14 L-32,0 L-18,14 Z"></path>
        </g>

        <!-- Minor points -->
        <g fill="url(#gold)" opacity="0.55">
          <path d="M0,-92 L9,-14 L0,-26 L-9,-14 Z" transform="rotate(45)"></path>
          <path d="M0,-92 L9,-14 L0,-26 L-9,-14 Z" transform="rotate(135)"></path>
          <path d="M0,-92 L9,-14 L0,-26 L-9,-14 Z" transform="rotate(225)"></path>
          <path d="M0,-92 L9,-14 L0,-26 L-9,-14 Z" transform="rotate(315)"></path>
        </g>

        <!-- Center -->
        <circle r="18" fill="none" stroke="url(#gold)" stroke-width="3" opacity="0.9"></circle>
        <circle r="7" fill="url(#gold)" opacity="0.85"></circle>
      </g>

      <!-- Sparkles -->
      <g opacity="0.7" fill="url(#gold)">
        <g transform="translate(0 -260)"><use href="#star8"></use></g>
        <g transform="translate(0 260) rotate(20)"><use href="#star8"></use></g>
        <g transform="translate(260 0) rotate(10)"><use href="#star8"></use></g>
        <g transform="translate(-260 0) rotate(35)"><use href="#star8"></use></g>
      </g>
    </g>

    <!-- Top + bottom ornamental swirls -->
    <g stroke="url(#gold)" stroke-width="4" fill="none" opacity="0.65" filter="url(#glow)">
      <path d="M225 230
               C285 170 465 170 525 230
               C490 212 455 215 430 236
               C405 258 390 290 375 320
               C360 290 345 258 320 236
               C295 215 260 212 225 230Z"></path>
      <path d="M225 1020
               C285 1080 465 1080 525 1020
               C490 1038 455 1035 430 1014
               C405 992 390 960 375 930
               C360 960 345 992 320 1014
               C295 1035 260 1038 225 1020Z"></path>
    </g>

    <!-- Moon & sun corner icons (simple) -->
    <g opacity="0.55" filter="url(#glow)">
      <!-- top-right moon -->
      <path d="M610 140
               A26 26 0 1 1 590 112
               A18 18 0 1 0 610 140Z" fill="url(#gold)"></path>
      <!-- bottom-left sun -->
      <g transform="translate(140 1110)" fill="none" stroke="url(#gold)" stroke-width="3">
        <circle r="18" fill="url(#gold)" opacity="0.35"></circle>
        <line x1="0" y1="-30" x2="0" y2="-42"></line>
        <line x1="0" y1="30" x2="0" y2="42"></line>
        <line x1="-30" y1="0" x2="-42" y2="0"></line>
        <line x1="30" y1="0" x2="42" y2="0"></line>
        <line x1="22" y1="-22" x2="32" y2="-32"></line>
        <line x1="-22" y1="-22" x2="-32" y2="-32"></line>
        <line x1="22" y1="22" x2="32" y2="32"></line>
        <line x1="-22" y1="22" x2="-32" y2="32"></line>
      </g>
    </g>
  </g>
</svg>